# xmcd CD database file
#
# Track frame offsets:
#	150
#	41390
#	95815
#	151122
#	206282
#	251715
#
# Disc length: 4068 seconds
#
# Revision: 0
# Processed by: cddbd v1.5.1PL0 Copyright (c) Steve Scherf et al.
# Submitted via: CDex 1.51
#
DISCID=440fe206
DTITLE=Pete Christlieb - Live at Capozzoli's
DYEAR=1998
DGENRE=Jazz
TTITLE0=Just Friends
TTITLE1=Things Ain't What They Used to Be
TTITLE2=Willow Weep For Me
TTITLE3=What Is This Thing Called Love
TTITLE4=Darn That Dream - Polka Dots and Moonbeams
TTITLE5=Speak Low
EXTD=YEAR: 1998
EXTT0=
EXTT1=
EXTT2=
EXTT3=
EXTT4=
EXTT5=
PLAYORDER=
